# xmcd
#
# Track frame offsets: 
#        150
#        31900
#        71055
#        98429
#        134041
#        159574
#        185369
#        217557
#
# Disc length: 3248 seconds
#
# Revision: 0
# Processed by: cddbd v1.5.2PL0 Copyright (c) Steve Scherf et al.
# Submitted via: ExactAudioCopy v1.0b1
#
DISCID=640cae08
DTITLE=Tung Duong - Nhung O Mau Lap Phuong
DYEAR=2007
DGENRE=Pop
TTITLE0=Nhung O Mau Khoi Lap Phuong
TTITLE1=Co Don
TTITLE2=Nhuc Nhoi
TTITLE3=Noi Khat
TTITLE4=Vong Tron
TTITLE5=Giac Mo
TTITLE6=Dinh Nui Lang Quen
TTITLE7=Mua Bay Thap Co
EXTD=
EXTT0=
EXTT1=
EXTT2=
EXTT3=
EXTT4=
EXTT5=
EXTT6=
EXTT7=
PLAYORDER=
